<svg width="400" height="400" viewBox="0 0 400 400" fill="none" xmlns="http://www.w3.org/2000/svg">
<path d="M200.996 212.275L152.721 205.379V122.621L200.996 115.724V212.275Z" fill="#94C1FF"/>
<path d="M200.996 214C200.916 214 200.834 213.994 200.753 213.982L152.476 207.086C151.628 206.964 150.996 206.237 150.996 205.379V122.621C150.996 121.762 151.628 121.035 152.476 120.914L200.753 114.018C201.247 113.947 201.749 114.094 202.127 114.421C202.504 114.749 202.721 115.223 202.721 115.724V212.275C202.721 212.776 202.504 213.251 202.126 213.578C201.811 213.852 201.409 214 200.996 214ZM154.444 203.884L199.273 210.288V117.711L154.444 124.115V203.884Z" fill="#0E65E5"/>
<path d="M200.996 129.517H247.548V200.207H200.996V129.517Z" fill="#D7E9FF"/>
<path d="M247.548 201.931H200.996C200.043 201.931 199.273 201.159 199.273 200.207V129.517C199.273 128.565 200.043 127.793 200.996 127.793H247.548C248.501 127.793 249.273 128.565 249.273 129.517V200.207C249.273 201.159 248.501 201.931 247.548 201.931ZM202.721 198.482H245.824V131.241H202.721V198.482Z" fill="#0E65E5"/>
<path d="M166.562 171.261L172.358 162.798L167.482 155.272C167.022 154.542 166.677 153.915 166.448 153.39C166.219 152.867 166.103 152.362 166.103 151.88C166.103 151.385 166.326 150.94 166.767 150.545C167.208 150.151 167.746 149.953 168.383 149.953C169.114 149.953 169.681 150.168 170.088 150.599C170.494 151.029 171.056 151.827 171.775 152.993L175.662 159.282L179.814 152.993C180.155 152.463 180.447 152.009 180.689 151.632C180.93 151.256 181.163 150.943 181.387 150.695C181.61 150.449 181.861 150.263 182.137 150.139C182.413 150.015 182.735 149.953 183.1 149.953C183.76 149.953 184.299 150.151 184.716 150.545C185.134 150.94 185.345 151.408 185.345 151.95C185.345 152.739 184.89 153.811 183.984 155.165L178.877 162.798L184.373 171.261C184.866 172.003 185.226 172.62 185.45 173.108C185.673 173.597 185.786 174.059 185.786 174.494C185.786 174.906 185.685 175.284 185.486 175.626C185.285 175.967 185.002 176.237 184.637 176.439C184.271 176.639 183.859 176.738 183.399 176.738C182.906 176.738 182.488 176.635 182.145 176.429C181.804 176.224 181.528 175.967 181.315 175.66C181.103 175.354 180.709 174.759 180.132 173.876L175.574 166.703L170.734 174.089C170.357 174.677 170.088 175.09 169.929 175.326C169.771 175.562 169.578 175.79 169.354 176.014C169.13 176.238 168.866 176.415 168.56 176.544C168.253 176.673 167.894 176.738 167.482 176.738C166.846 176.738 166.319 176.544 165.901 176.155C165.482 175.767 165.273 175.201 165.273 174.459C165.273 173.587 165.704 172.522 166.562 171.261Z" fill="#0E65E5"/>
<path d="M238.928 151.873H200.996C200.076 151.873 199.33 151.127 199.33 150.207V139.862C199.33 138.941 200.076 138.195 200.996 138.195H238.928C239.849 138.195 240.594 138.941 240.594 139.862V150.207C240.594 151.126 239.849 151.873 238.928 151.873ZM202.664 148.54H237.26V141.529H202.664V148.54Z" fill="#0E65E5"/>
<path d="M200.996 150.207H238.928V160.552H200.996V150.207Z" fill="#94C1FF"/>
<path d="M238.928 162.275H200.996C200.043 162.275 199.273 161.504 199.273 160.552V150.207C199.273 149.255 200.043 148.482 200.996 148.482H238.928C239.881 148.482 240.652 149.255 240.652 150.207V160.552C240.652 161.504 239.881 162.275 238.928 162.275ZM202.721 158.827H237.203V151.93H202.721V158.827Z" fill="#0E65E5"/>
<path d="M238.928 172.563H200.996C200.076 172.563 199.33 171.817 199.33 170.896V160.552C199.33 159.631 200.076 158.885 200.996 158.885H238.928C239.849 158.885 240.594 159.631 240.594 160.552V170.896C240.594 171.817 239.849 172.563 238.928 172.563ZM202.664 169.229H237.261V162.218H202.664V169.229Z" fill="#0E65E5"/>
<path d="M200.996 170.896H238.928V181.241H200.996V170.896Z" fill="#94C1FF"/>
<path d="M238.928 182.966H200.996C200.043 182.966 199.273 182.193 199.273 181.241V170.896C199.273 169.944 200.043 169.173 200.996 169.173H238.928C239.881 169.173 240.652 169.944 240.652 170.896V181.241C240.652 182.193 239.881 182.966 238.928 182.966ZM202.721 179.517H237.203V172.621H202.721V179.517Z" fill="#0E65E5"/>
<path d="M238.928 193.253H200.996C200.076 193.253 199.33 192.507 199.33 191.586V181.241C199.33 180.321 200.076 179.575 200.996 179.575H238.928C239.849 179.575 240.594 180.321 240.594 181.241V191.586C240.594 192.506 239.849 193.253 238.928 193.253ZM202.664 189.919H237.261V182.907H202.664V189.919Z" fill="#0E65E5"/>
<path d="M226.859 193.253C225.938 193.253 225.192 192.507 225.192 191.586V139.862C225.192 138.941 225.938 138.195 226.859 138.195C227.78 138.195 228.525 138.941 228.525 139.862V191.586C228.525 192.506 227.78 193.253 226.859 193.253Z" fill="#0E65E5"/>
<path d="M161.342 136.414C160.388 136.414 159.617 135.641 159.617 134.689V127.793C159.617 126.841 160.388 126.069 161.342 126.069C162.295 126.069 163.065 126.841 163.065 127.793V134.689C163.065 135.641 162.295 136.414 161.342 136.414Z" fill="white"/>
<path d="M164.79 132.966H157.894C156.94 132.966 156.169 132.193 156.169 131.241C156.169 130.289 156.94 129.517 157.894 129.517H164.79C165.743 129.517 166.514 130.289 166.514 131.241C166.514 132.193 165.743 132.966 164.79 132.966Z" fill="white"/>
<path d="M242.376 136.414H230.307C229.354 136.414 228.583 135.641 228.583 134.689C228.583 133.737 229.354 132.966 230.307 132.966H242.376C243.329 132.966 244.1 133.737 244.1 134.689C244.1 135.641 243.329 136.414 242.376 136.414Z" fill="white"/>
<path d="M105.952 252.708H102.1V249.756H105.952V252.708ZM105.952 258.108H102.1V255.12H105.952V258.108ZM95.296 255.12H99.292V258.108H95.296V255.12ZM95.296 249.756H99.292V252.708H95.296V249.756ZM108.868 247.2H92.488V260.664H108.868V247.2ZM82.264 254.796H88.384V252.492H82.732C83.56 251.628 84.352 250.764 85.036 249.828C86.98 250.944 89.248 252.348 90.436 253.284L91.912 250.584C90.724 249.72 88.528 248.496 86.656 247.524C86.908 247.164 87.088 246.768 87.304 246.408L84.532 245.436C82.912 248.352 79.996 251.088 77.188 252.78C77.692 253.536 78.412 255.264 78.664 255.912C79.888 255.084 81.112 254.076 82.264 252.96V254.796ZM87.088 259.08V261.492H82.588V259.08H87.088ZM82.588 266.46V263.904H87.088V266.46H82.588ZM85.396 270.528C85.756 271.212 86.152 271.968 86.548 272.76L82.588 274.164V268.944H90.112V256.596H79.492V273.66C79.492 275.028 78.628 275.496 77.98 275.748C78.448 276.54 78.952 277.98 79.132 278.772C79.816 278.232 80.86 277.728 87.664 275.1C88.132 276.108 88.564 277.08 88.852 277.836L91.444 276.504C90.76 274.74 89.176 271.68 87.844 269.448L85.396 270.528ZM108.22 266.604C107.14 267.612 105.484 268.908 104.008 269.88C103.324 268.656 102.712 267.288 102.28 265.812H110.488V263.004H90.868V265.812H93.352V273.804C93.352 275.172 92.704 275.64 92.128 275.928C92.56 276.54 93.064 277.836 93.244 278.592C93.928 278.16 95.08 277.764 101.776 276.108C101.704 275.424 101.74 274.128 101.848 273.228L96.448 274.38V265.812H99.58C101.2 271.896 104.188 276.468 109.048 278.808C109.444 277.98 110.308 276.864 110.956 276.252C108.724 275.388 106.888 273.912 105.412 272.04C106.96 271.14 108.724 269.952 110.164 268.764L108.22 266.604ZM145.336 252.636C144.22 250.944 141.808 248.496 139.792 246.768L137.272 248.496C139.288 250.296 141.628 252.888 142.636 254.58L145.336 252.636ZM141.52 260.772C140.44 262.824 139.036 264.804 137.416 266.64C136.876 264.444 136.48 262.032 136.12 259.332H145.984V256.164H135.76C135.472 252.996 135.328 249.576 135.364 246.12H131.908C131.944 249.54 132.088 252.924 132.376 256.164H124.744V250.512C126.868 250.08 128.92 249.576 130.684 249L128.344 246.192C124.852 247.416 119.128 248.568 114.124 249.324C114.556 250.044 114.988 251.34 115.168 252.096C117.112 251.844 119.236 251.556 121.36 251.196V256.164H114.088V259.332H121.36V265.02C118.372 265.596 115.6 266.1 113.476 266.46L114.412 269.808C116.464 269.376 118.804 268.872 121.36 268.332V274.74C121.36 275.316 121.144 275.496 120.496 275.532C119.884 275.568 117.796 275.568 115.6 275.496C116.104 276.396 116.68 277.944 116.86 278.88C119.74 278.88 121.756 278.772 123.016 278.232C124.276 277.692 124.744 276.72 124.744 274.74V267.576C126.832 267.144 128.956 266.64 131.008 266.172L130.756 263.184L124.744 264.372V259.332H132.7C133.132 263.04 133.744 266.496 134.608 269.412C132.052 271.644 129.244 273.552 126.292 274.92C127.156 275.676 128.056 276.792 128.596 277.62C131.116 276.288 133.492 274.668 135.724 272.76C137.308 276.612 139.432 278.988 142.168 278.988C145.084 278.988 146.2 277.332 146.776 271.212C145.876 270.924 144.724 270.132 143.968 269.34C143.788 273.804 143.356 275.568 142.492 275.568C141.016 275.568 139.612 273.552 138.424 270.204C140.836 267.756 142.888 265.02 144.508 262.032L141.52 260.772ZM159.578 276H175.634V272.472H163.754V263.904H173.474V260.376H163.754V252.996H175.238V249.504H159.578V276ZM176.806 276H181.162L183.466 271.824C184.078 270.6 184.69 269.412 185.302 268.296H185.482C186.202 269.412 186.886 270.636 187.534 271.824L190.126 276H194.626L188.254 266.136L194.194 256.2H189.874L187.786 260.196C187.246 261.276 186.67 262.392 186.13 263.508H185.986C185.338 262.392 184.69 261.276 184.114 260.196L181.738 256.2H177.274L183.214 265.668L176.806 276ZM205.567 276.468C207.835 276.468 210.175 275.64 211.975 274.02L210.283 271.284C209.095 272.292 207.619 273.084 205.963 273.084C202.651 273.084 200.383 270.312 200.383 266.136C200.383 261.924 202.759 259.116 206.071 259.116C207.439 259.116 208.555 259.692 209.635 260.664L211.687 257.964C210.247 256.704 208.411 255.696 205.891 255.696C200.671 255.696 196.099 259.512 196.099 266.136C196.099 272.688 200.203 276.468 205.567 276.468ZM223.396 276.468C225.988 276.468 228.256 275.604 230.092 274.38L228.652 271.752C227.212 272.688 225.7 273.228 223.936 273.228C220.516 273.228 218.14 270.96 217.816 267.18H230.668C230.776 266.712 230.848 265.884 230.848 265.092C230.848 259.476 228.04 255.696 222.784 255.696C218.14 255.696 213.748 259.692 213.748 266.136C213.748 272.652 218.032 276.468 223.396 276.468ZM217.78 264.336C218.176 260.844 220.372 258.936 222.856 258.936C225.736 258.936 227.284 260.916 227.284 264.336H217.78ZM239.611 276.468C240.619 276.468 241.339 276.324 241.843 276.144L241.303 273.012C240.943 273.084 240.799 273.084 240.619 273.084C240.115 273.084 239.611 272.688 239.611 271.572V247.308H235.507V271.356C235.507 274.56 236.623 276.468 239.611 276.468ZM260.688 256.488H264.072V253.392H260.688V245.796H257.628V253.392H253.128V256.488H257.376C256.368 261.06 254.388 266.388 252.336 269.34C252.84 270.06 253.596 271.356 253.92 272.256C255.324 270.204 256.584 267.072 257.628 263.724V278.808H260.688V262.716C261.588 264.408 262.56 266.352 262.992 267.468L264.756 265.056C264.18 264.12 261.696 260.268 260.688 258.864V256.488ZM273.288 267.792V270.24H268.464V267.792H273.288ZM281.136 270.24H276.168V267.792H281.136V270.24ZM276.168 275.028V272.616H281.136V275.028H276.168ZM268.464 275.028V272.616H273.288V275.028H268.464ZM265.404 278.808H268.464V277.548H281.136V278.772H284.34V265.308H265.404V278.808ZM279.156 261.276H270.768V258.54H279.156V261.276ZM281.172 251.484C281.964 250.296 282.936 248.64 283.8 247.056L280.704 246.084C280.236 247.488 279.228 249.468 278.508 250.764L280.452 251.484H276.348V245.796H273.18V251.484H268.68L270.948 250.656C270.588 249.432 269.652 247.56 268.68 246.228L265.98 247.128C266.808 248.46 267.672 250.224 268.032 251.484H264.54V257.46H267.528V254.112H282.18V256.2H267.852V263.652H282.252V257.46H285.276V251.484H281.172ZM317.172 253.644H320.376V248.352H307.416C306.948 247.488 306.3 246.516 305.832 245.724L302.376 246.516C302.664 247.092 303.024 247.704 303.384 248.352H290.136V253.644H293.232V251.16H317.172V253.644ZM309.468 257.496C308.46 258.612 307.2 259.584 305.688 260.34C303.564 259.908 301.368 259.512 299.172 259.152C299.712 258.612 300.288 258.072 300.864 257.496H309.468ZM320.7 264.156C317.856 263.22 314.112 262.212 309.936 261.24C311.376 260.232 312.564 258.972 313.536 257.496H320.916V254.832H314.94C315.156 254.292 315.372 253.752 315.552 253.176L312.276 252.492C311.988 253.32 311.7 254.112 311.304 254.832H303.276C304.068 253.932 304.752 253.032 305.364 252.168L302.196 251.16C301.44 252.348 300.54 253.572 299.496 254.832H289.524V257.496H297.156C296.004 258.684 294.888 259.872 293.88 260.772C296.22 261.132 298.56 261.564 300.828 261.996C297.696 262.68 293.952 263.04 289.38 263.22C289.848 263.94 290.316 265.02 290.568 265.992C297.336 265.56 302.556 264.804 306.444 263.184C310.908 264.156 314.688 265.272 317.46 266.316L320.7 264.156ZM297.624 270.816C295.824 272.796 292.512 274.596 289.38 275.676C290.208 276.216 291.54 277.296 292.188 277.944C295.248 276.576 298.848 274.344 300.936 271.896L297.624 270.816ZM321.276 267.612H306.768V264.876H303.42V267.612H289.2V270.384H303.42V278.808H306.768V270.384H311.376L309.108 272.472C312.276 274.02 316.308 276.504 318.252 278.232L320.808 275.856C318.72 274.128 314.616 271.824 311.484 270.384H321.276V267.612Z" fill="#0E65E5"/>
<rect x="30" y="30" width="340" height="340" rx="20" stroke="#94C1FF" stroke-width="4" stroke-linecap="round" stroke-linejoin="round" stroke-dasharray="10 10"/>
</svg>
