<svg width="400" height="400" viewBox="0 0 400 400" fill="none" xmlns="http://www.w3.org/2000/svg">
<g clip-path="url(#clip0)">
<path d="M240.144 219.939H159.857C154.422 219.939 150 224.361 150 229.801C150 235.423 154.757 239.726 160.262 239.658H240.008C241.938 239.601 241.949 236.79 240.008 236.729H232.814L240.603 222.884C246.126 223.188 249.086 229.905 245.511 234.181C244.999 234.807 245.092 235.73 245.718 236.242C246.345 236.754 247.268 236.661 247.779 236.034C253.025 229.713 248.371 219.877 240.144 219.939V219.939ZM204.789 236.729L212.586 222.868H223.237L215.44 236.729H204.789ZM190.776 236.729L198.574 222.868H209.225L201.427 236.729H190.776ZM176.764 236.729L184.561 222.868H195.212L187.415 236.729H176.764ZM152.93 229.796C152.93 225.976 156.037 222.868 159.857 222.868H167.187L166.315 224.417C165.919 225.122 166.169 226.016 166.874 226.412C167.544 226.789 168.491 226.525 168.869 225.854L170.548 222.868H181.199L173.402 236.729H162.751L164.398 233.801C164.795 233.096 164.545 232.202 163.84 231.806C163.135 231.409 162.242 231.659 161.845 232.364L159.398 236.713C155.791 236.476 152.93 233.467 152.93 229.796V229.796ZM218.802 236.729L226.599 222.868H237.25L229.453 236.729H218.802Z" fill="#0E65E5"/>
<path d="M200.495 179.321C199.699 178.159 197.821 178.74 197.821 180.149V191.372C197.821 193.205 200.751 193.288 200.751 191.372V184.88L205.604 191.966C206.557 193.352 208.565 192.597 208.565 190.979L208.461 180.114C208.443 178.2 205.514 178.227 205.532 180.142L205.595 186.768L200.495 179.321Z" fill="#0E65E5"/>
<path d="M192.9 192.837C193.709 192.837 194.365 192.181 194.365 191.372V180.128C194.365 178.295 191.436 178.211 191.436 180.128V191.372C191.436 192.181 192.091 192.837 192.9 192.837Z" fill="#0E65E5"/>
<path d="M219.737 174.515C220.546 174.515 221.202 173.859 221.202 173.05V170.298L225.11 174.1C225.804 174.662 226.495 174.653 227.181 174.071C227.746 173.491 227.732 172.564 227.153 172L222.221 167.203L226.731 163.022C227.325 162.472 227.36 161.546 226.81 160.952C226.26 160.359 225.333 160.324 224.74 160.874L221.202 164.152V161.806C221.143 159.871 218.332 159.868 218.272 161.806V173.05C218.272 173.859 218.928 174.515 219.737 174.515V174.515Z" fill="#0E65E5"/>
<path d="M174.605 173.163C174.618 173.233 174.637 173.301 174.661 173.368C174.904 174.059 175.56 174.52 176.291 174.515C177.023 174.51 177.672 174.04 177.906 173.346C177.91 173.333 177.914 173.32 177.918 173.308L179.91 166.819L181.893 173.309C181.899 173.329 181.906 173.349 181.913 173.368C182.156 174.059 182.812 174.52 183.543 174.515C184.275 174.51 184.923 174.04 185.158 173.346C185.178 173.286 185.195 173.224 185.207 173.162L187.388 162.11C187.743 160.312 184.885 159.663 184.514 161.543L183.277 167.811L181.311 161.378C180.887 159.988 178.774 160.081 178.476 161.507L176.541 167.812L175.307 161.524C174.955 159.725 172.064 160.207 172.432 162.088L174.605 173.163Z" fill="#0E65E5"/>
<path d="M207.729 174.515C208.538 174.515 209.194 173.859 209.194 173.05V170.049L212.655 174.013C213.324 174.631 214.013 174.678 214.721 174.153C215.331 173.621 215.394 172.696 214.862 172.086L212.084 168.904C216.94 167.295 215.854 160.437 210.696 160.341H207.733C206.923 160.339 206.264 160.995 206.264 161.806V173.05C206.264 173.859 206.92 174.515 207.729 174.515V174.515ZM210.696 163.271C212.807 163.361 212.806 166.096 210.696 166.185C210.347 166.185 209.765 166.188 209.21 166.19C209.206 165.217 209.205 164.244 209.202 163.271H210.696Z" fill="#0E65E5"/>
<path d="M196.397 174.515C200.279 174.515 203.437 171.336 203.437 167.428C203.083 158.039 189.709 158.041 189.356 167.428C189.356 171.335 192.514 174.515 196.397 174.515V174.515ZM196.397 163.271C198.663 163.271 200.508 165.135 200.508 167.428C200.3 172.936 192.492 172.934 192.286 167.428C192.286 165.135 194.13 163.271 196.397 163.271V163.271Z" fill="#0E65E5"/>
<path d="M223.063 200.017C225 199.957 224.999 197.147 223.063 197.087H218.407C217.598 197.087 216.943 197.743 216.943 198.552V209.694C216.943 210.503 217.598 211.158 218.407 211.158H223.063C225 211.098 224.999 208.288 223.063 208.229H219.872V205.588H222.72C224.657 205.528 224.655 202.717 222.72 202.658H219.872V200.017H223.063Z" fill="#0E65E5"/>
<path d="M196.576 211.158C200.272 211.158 202.854 208.244 202.854 204.072C202.854 203.263 202.198 202.607 201.389 202.607H198.053C196.116 202.667 196.118 205.477 198.053 205.536H199.747C198.704 210.075 192.424 208.38 192.465 204.072C192.404 200.818 196.217 198.748 198.868 200.62C199.537 201.076 200.448 200.903 200.904 200.234C201.359 199.566 201.186 198.654 200.518 198.199C195.947 195.001 189.463 198.485 189.535 204.072C189.535 207.979 192.694 211.158 196.576 211.158V211.158Z" fill="#0E65E5"/>
<path d="M232.444 208.229C231.358 208.229 230.312 207.787 229.648 207.048C229.107 206.446 228.181 206.396 227.579 206.938C226.977 207.478 226.928 208.405 227.469 209.006C228.68 210.354 230.54 211.158 232.444 211.158C237.751 211.158 238.843 204.617 233.923 202.787C232.566 202.282 231.302 201.733 230.901 201.556C230.258 201.022 230.907 200.207 231.496 200.028C233.025 199.564 234.45 200.696 234.492 200.73C235.109 201.245 236.028 201.167 236.549 200.552C237.072 199.935 236.995 199.011 236.378 198.488C236.272 198.398 233.734 196.286 230.645 197.224C227.797 198.089 226.356 202.724 229.567 204.17C229.632 204.199 231.17 204.889 232.902 205.533C234.674 206.192 234.664 208.229 232.444 208.229Z" fill="#0E65E5"/>
<path d="M242.1 204.058C242.165 204.1 242.233 204.138 242.304 204.17C242.368 204.199 243.906 204.889 245.638 205.533C247.41 206.192 247.401 208.229 245.181 208.229C244.094 208.229 243.049 207.787 242.384 207.048C241.843 206.446 240.918 206.396 240.315 206.937C239.714 207.478 239.664 208.404 240.205 209.006C241.416 210.354 243.276 211.158 245.181 211.158C250.487 211.158 251.579 204.617 246.659 202.787C245.302 202.283 244.038 201.733 243.637 201.556C242.994 201.021 243.643 200.207 244.233 200.028C245.76 199.564 247.183 200.693 247.228 200.729C247.845 201.245 248.764 201.167 249.285 200.552C249.808 199.935 249.732 199.011 249.115 198.488C249.008 198.398 246.47 196.286 243.381 197.225C240.397 198.131 239.304 202.22 242.1 204.058V204.058Z" fill="#0E65E5"/>
<path d="M214.377 201.372C214.377 198.953 212.347 196.985 209.851 196.985H206.887C206.077 196.982 205.419 197.639 205.419 198.449V209.694C205.477 211.626 208.288 211.633 208.348 209.694V206.692L211.809 210.657C212.479 211.275 213.168 211.322 213.876 210.797C214.485 210.265 214.548 209.34 214.016 208.73L211.238 205.548C213.058 204.979 214.377 203.322 214.377 201.372V201.372ZM209.851 202.829C209.498 202.829 208.909 202.832 208.349 202.834V199.914H209.851C211.962 200.005 211.96 202.74 209.851 202.829Z" fill="#0E65E5"/>
<path d="M170.767 201.372C170.767 198.953 168.736 196.985 166.24 196.985H163.277C162.467 196.982 161.808 197.639 161.808 198.449V209.694C161.867 211.626 164.677 211.633 164.738 209.694V206.692L168.199 210.657C168.868 211.275 169.557 211.322 170.266 210.797C170.875 210.265 170.938 209.34 170.406 208.73L167.628 205.548C169.447 204.979 170.767 203.322 170.767 201.372ZM166.24 202.829C165.891 202.829 165.309 202.832 164.754 202.834C164.75 201.861 164.749 200.888 164.746 199.914H166.24C168.351 200.004 168.35 202.74 166.24 202.829V202.829Z" fill="#0E65E5"/>
<path d="M151.465 211.158C152.274 211.158 152.93 210.503 152.93 209.694V206.266C153.535 206.263 154.187 206.261 154.57 206.261C160.762 206.027 160.759 197.217 154.57 196.985H151.465C150.656 196.985 150 197.64 150 198.449V209.694C150 210.503 150.656 211.158 151.465 211.158V211.158ZM156.313 201.623C156.313 202.549 155.515 203.331 154.57 203.331C154.187 203.331 153.536 203.334 152.93 203.337V199.914H154.57C155.515 199.914 156.313 200.697 156.313 201.623V201.623Z" fill="#0E65E5"/>
<path d="M179.929 196.985C176.047 196.985 172.889 200.164 172.889 204.072C173.244 213.461 186.617 213.458 186.97 204.072C186.97 200.164 183.811 196.985 179.929 196.985ZM179.929 208.229C177.663 208.229 175.819 206.364 175.819 204.072C176.026 198.564 183.834 198.565 184.04 204.072C184.04 206.364 182.196 208.229 179.929 208.229Z" fill="#0E65E5"/>
<path d="M212.846 185.75C212.846 186.559 213.502 187.215 214.311 187.215H239.963C241.899 187.155 241.898 184.344 239.963 184.285H214.311C213.502 184.285 212.846 184.941 212.846 185.75Z" fill="#0E65E5"/>
<path d="M160.038 187.215H185.69C187.627 187.155 187.625 184.344 185.69 184.285H160.038C158.102 184.345 158.103 187.155 160.038 187.215V187.215Z" fill="#0E65E5"/>
</g>
<defs>
<clipPath id="clip0">
<rect width="100" height="100" fill="white" transform="translate(150 150)"/>
</clipPath>
</defs>
</svg>
